<svg xmlns="http://www.w3.org/2000/svg" viewBox="0 0 100 100" width="200" height="200">
  <defs>
    <filter id="blur" x="-60%" y="-60%" width="220%" height="220%">
      <feGaussianBlur stdDeviation="5"/>
    </filter>
  </defs>
  <rect width="100" height="100" rx="22" fill="#0D0F17"/>
  <g filter="url(#blur)" opacity="0.5">
    <path d="M 50,15 A 35,35 0 1 1 15,50 L 25,50 A 25,25 0 1 0 50,25 Z" fill="#38D9D9"/>
    <polygon points="20,35 12,52 28,52" fill="#38D9D9"/>
    <circle cx="50" cy="50" r="6" fill="#38D9D9"/>
  </g>
  <path d="M 50,15 A 35,35 0 1 1 15,50 L 25,50 A 25,25 0 1 0 50,25 Z" fill="#2B8ABF"/>
  <polygon points="20,35 12,52 28,52" fill="#2B8ABF"/>
  <circle cx="50" cy="50" r="6" fill="#4AABDF"/>
</svg>
